# xmcd
#
# Track frame offsets: 
#        150
#        14580
#        26502
#        41954
#        56916
#
# Disc length: 891 seconds
#
# Revision: 3
# Processed by: cddbd v1.5.2PL0 Copyright (c) Steve Scherf et al.
# Submitted via: ExactAudioCopy v0.90b4
#
DISCID=42037905
DTITLE=Rocío Durcal - Sus mejores rancheras
DYEAR=2006
DGENRE=Latin
TTITLE0=Fue tan poco tu cariño
TTITLE1=Te recuerdo dulcemente
TTITLE2=Siempre estoy pensando en ti
TTITLE3=Se me olvidó otra vez
TTITLE4=Me gusta estar contigo
EXTD=
EXTT0=
EXTT1=
EXTT2=
EXTT3=
EXTT4=
PLAYORDER=
